<svg fill="none" height="24" viewBox="0 0 24 24" width="24" xmlns="http://www.w3.org/2000/svg"><g fill="#000"><path d="m15.25 16.75h-1.75c-1.38 0-2.5-1.12-2.5-2.5 0-.41.34-.75.75-.75s.75.34.75.75c0 .55.45 1 1 1h1.75c.55 0 1-.45 1-1s-.45-1-1-1h-1.75c-1.38 0-2.5-1.12-2.5-2.5s1.12-2.5 2.5-2.5h1.75c1.38 0 2.5 1.12 2.5 2.5 0 .41-.34.75-.75.75s-.75-.34-.75-.75c0-.55-.45-1-1-1h-1.75c-.55 0-1 .45-1 1s.45 1 1 1h1.75c1.38 0 2.5 1.12 2.5 2.5s-1.12 2.5-2.5 2.5z"/><path d="m12.0002 22.6095c-.29 0-.5799-.0699-.8499-.2199l-1.48007-.7101c-.37-.18-.52998-.63-.34998-1s.62-.53 1.00005-.35l1.51.73c.11.06.2099.06.2799.02l8-4.4399c.08-.04.13-.13.13-.2201v-8.81996c0-.09-.05-.17-.13-.22l-8-4.44c-.08-.04-.17-.04-.24 0l-7.99996 4.44c-.08.04-.13001.13-.13001.22v8.81996c0 .0901.05001.1701.13001.2201l2.51001 1.3899c.39.22.84999.21 1.23999-.02s.61999-.63.61999-1.08l.01001-7.92996c0-.41.34-.75.75-.75s.75.34.75.75l-.01001 7.92996c0 .98-.50998 1.87-1.35998 2.37s-1.86998.51-2.72998.03l-2.51001-1.39c-.56-.31-.90003-.9-.90003-1.53v-8.81997c0-.63.34003-1.22.90003-1.53l8.00004-4.44c.53-.3 1.17-.3 1.7 0l8 4.44c.56.31.8999.9.8999 1.53v8.81997c0 .63-.3399 1.22-.8999 1.53l-8 4.44c-.26.15-.5501.23-.8401.23z"/></g></svg>