<svg height="512" width="512" xmlns="http://www.w3.org/2000/svg"><path d="m300.7026672 254.8256073c0-35.0435791-37.9459534-57.064743-68.1388092-39.5429382-30.1928406 17.5217743-30.1928406 61.5641022.0000153 79.0858612 30.1928406 17.5217895 68.1387939-4.4993592 68.1387939-39.542923zm104.0101929-84.170105c30.0607605-143.6903687-36.072876-188.7814789-148.5000916-84.7713013-105.8138122-99.2004604-181.1661148-67.9372844-149.1012954 84.1700898-147.8613701 44.5752563-138.0647659 128.4855652 1.2024307 171.3462524-31.8643951 140.0830994 27.6558838 191.1863708 147.8988647 85.3725281 116.6357117 104.6113892 178.5369263 55.6321106 146.6964417-85.9737244 151.9070129-51.5041504 138.2794495-126.0547943 1.8036499-170.1438446zm-20.4413147-5.4109344c-23.8307495-5.375412-46.8896179-9.2882996-70.3421326-11.4230804-12.3563232-18.0675659-26.7483521-36.115387-43.2874756-52.9069061 90.137848-86.4603911 143.2626343-59.4448358 113.6296082 64.3299865zm-232.670166 117.2369079c8.918045 19.0384521 20.6417389 36.4736938 29.4595337 51.1032715-14.3586273-1.4685364-29.8273621-3.6986389-46.2935486-6.6133423 5.2761841-14.7691955 10.8935699-29.6002197 16.8340149-44.4899292zm-1.2024231-51.7044677c-6.5595093-15.7457123-12.5452271-30.9425354-17.4352417-45.0911255 16.9986267-3.5235443 33.6560059-6.7227173 48.0971985-7.8157959-10.747818 16.8840027-20.9564362 34.5367584-30.6619568 52.9069214zm12.6255035 26.4534607c14.7019501-29.4436951 30.2539062-57.3918915 47.4959869-82.3664551 30.5939941-1.7593842 60.8627319-1.6035156 90.7834473.6012115 16.781189 23.3826599 32.4436035 51.329834 47.4959717 81.7652435-11.2641907 23.2770996-27.2587585 50.103241-45.6923218 78.7591553-30.7770996 2.3305664-62.3356171 2.0082397-94.3907471 0-16.2465972-24.8901062-31.5046996-51.1064453-45.692337-78.7591552zm197.1985016 25.251007c5.8381348 14.1664429 11.2332153 28.6053467 16.2327881 43.2874756-15.4307861 3.2492371-30.652771 5.6168823-45.6923218 7.2145996 10.2942505-15.9495239 20.059906-32.884613 29.4595337-50.5020752zm-29.4595337-104.6113891c16.3929443 2.2440643 32.2282715 5.046402 47.4959717 8.4170074-5.107666 15.1780396-10.9108887 30.0122375-17.4352112 44.4899139-9.3059387-18.354309-19.2972412-36.0190277-30.0607605-52.9069213zm-46.2935485-26.4534607c-18.7246399-.7345581-37.7732086-.7109985-57.1154175 0 8.4677277-11.1366272 17.9058075-22.7698364 28.2570953-34.8704605 10.0878143 10.8889465 19.6455536 22.6092605 28.8583222 34.8704605zm-43.2874756-50.5020447c-16.5391388 16.7915192-30.9311523 34.2381287-43.2874756 52.3056946-23.4525146 2.1347809-47.1125183 6.0476685-70.9433594 11.4230804-28.257103-125.6539154 24.0930023-150.189166 114.230835-63.728775zm-127.4575653 220.645874c-125.2531357-37.676178-119.2409821-96.3948212-1.2024307-131.0648499 7.2205963 21.9109497 15.9619217 44.1636047 25.8522415 65.5324097-9.6103364 22.0992127-18.1182786 44.7972718-24.6498108 65.5324402zm15.6315918 25.2510376c21.2429504 5.2105103 43.7547455 7.711853 67.3360748 10.2206421 14.188797 20.0240784 28.8825989 38.6404724 44.4898987 54.7105713-91.7854615 87.9777222-142.9528656 56.0135193-111.8259735-64.9312134zm126.2551269 49.9008179c-10.8765411-11.2629395-21.0314331-24.0250854-30.6619568-37.8765259 21.4670105.452301 42.2002716.5025024 61.9251251 0-9.5528564 13.5522156-19.9859008 26.1649475-31.2631683 37.8765259zm15.0303803 15.0303955c16.7466125-18.195282 31.5098267-36.6409607 44.4898987-55.3117981 22.1543274-1.6300659 44.5992737-5.033905 67.3360901-10.2206421 31.4081115 128.733551-25.6201173 147.742981-111.8259888 65.5324402zm126.8563537-91.3846741c-6.440094-20.7351685-14.5727844-42.2308044-24.0486145-64.3300171 9.7519226-21.3688049 18.1315613-43.0202484 25.2510376-64.9311981 115.2329407 34.8704682 124.4515076 90.5830231-1.2024231 129.2612152z"/></svg>