<svg height="48pt" viewBox="0 0 48 48" width="48pt" xmlns="http://www.w3.org/2000/svg" xmlns:xlink="http://www.w3.org/1999/xlink"><linearGradient id="a" gradientTransform="matrix(47.5 0 0 45.415 .25 1.749)" gradientUnits="userSpaceOnUse" x1=".390606" x2=".789203" y1=".640297" y2=".186753"><stop offset="0" stop-color="#d300dc"/><stop offset="1" stop-color="#8700ff"/></linearGradient><path d="m26.769 41.623h20.981v.791h-6.333v.792h4.75v.792h-9.5v.791h4.75v.792h-11.084v.792h-12.666v-.792h-11.084v-.792h4.75v-.791h-9.5v-.792h6.334v-.792h-7.917v-.791h21.688-16.938v-.792h-4.75v-.792h17.849c-.699-.448-1.353-.973-1.949-1.569-2.18-2.17-3.4-5.13-3.4-8.21 0-2.98 1.15-5.85 3.2-8 2.05-2.16 4.86-3.45 7.84-3.6-1.55 1.61-2.42 3.75-2.42 5.98 0 2.29.91 4.48 2.52 6.09 1.62 1.62 3.81 2.53 6.09 2.53 2.23 0 4.38-.87 5.98-2.42-.15 2.98-1.43 5.78-3.59 7.84-.538.511-1.12.965-1.737 1.359h17.117v.792h-4.75v.792zm-10.686 4.75h15.834v.791h-15.834zm7.146-35.234.42.767.767.42-.767.42-.42.768-.42-.768-.768-.42.768-.42zm11.079 6.252.419.768.768.42-.768.42-.419.767-.42-.767-.768-.42.768-.42zm-25.508 1.748.42.768.767.42-.767.42-.42.767-.42-.767-.768-.42.768-.42zm19.006 3.094.42.768.768.419-.768.42-.42.768-.42-.768-.767-.42.767-.419zm9.652 1.973.84 1.535 1.535.84-1.535.84-.84 1.535-.839-1.535-1.536-.84 1.536-.84zm-7.916 2.375.559 1.023 1.024.56-1.024.56-.559 1.024-.56-1.024-1.024-.56 1.024-.56zm-20.536 5.59.84 1.535 1.535.84-1.535.839-.84 1.536-.839-1.536-1.536-.839 1.536-.84zm-3.214 3.118c0 1.311-1.065 2.375-2.375 2.375-1.311 0-2.375-1.064-2.375-2.375v-17.662c0-1.656 1.152-3.692 2.572-4.544l17.83-10.703c1.419-.852 3.717-.839 5.127.029l17.833 10.977c1.41.868 2.554 2.917 2.554 4.573v17.33c0 1.311-1.064 2.375-2.375 2.375-1.31 0-2.375-1.064-2.375-2.375v-15.67c0-1.104-.763-2.469-1.703-3.048l-14.817-9.114c-.941-.578-2.472-.587-3.419-.019l-14.762 8.852c-.947.567-1.715 1.925-1.715 3.028zm12.588-11.229c-1.68 1.62-2.63 3.86-2.63 6.2 0 2.28.91 4.48 2.52 6.09 1.62 1.62 3.81 2.53 6.09 2.53 2.34 0 4.58-.96 6.2-2.64-.19.01-.38.02-.58.02-3.08 0-6.03-1.23-8.21-3.41-2.18-2.17-3.4-5.13-3.4-8.21 0-.19 0-.38.01-.58z" fill="url(#a)" fill-rule="evenodd"/></svg>