<svg height="48pt" viewBox="0 0 48 48" width="48pt" xmlns="http://www.w3.org/2000/svg" xmlns:xlink="http://www.w3.org/1999/xlink"><linearGradient id="a" gradientTransform="matrix(18.52 0 0 23.566 .35 12.88)" gradientUnits="userSpaceOnUse" x1="0" x2="1" y1=".5" y2=".5"><stop offset="0" stop-color="#18d0ad"/><stop offset=".904496403" stop-color="#07c3f2"/></linearGradient><linearGradient id="b" gradientTransform="matrix(24.845 0 0 19.613 12.883 .6)" gradientUnits="userSpaceOnUse" x1="-.11102" x2=".887411" y1="-.158062" y2=".886227"><stop offset="0" stop-color="#5433ff"/><stop offset=".51739130435" stop-color="#20bdff"/><stop offset=".98260869565" stop-color="#a5fecb"/></linearGradient><linearGradient id="c" gradientTransform="matrix(23.206 0 0 24.369 16.02 19.18)" gradientUnits="userSpaceOnUse" x1=".780206" x2="0" y1=".81334" y2="0"><stop offset="0" stop-color="#d300dc"/><stop offset="1" stop-color="#8700ff"/></linearGradient><linearGradient id="d" gradientTransform="matrix(32.719 0 0 32.058 14.931 15.342)" gradientUnits="userSpaceOnUse" x1="0" x2=".907488" y1=".5" y2=".920078"><stop offset="0" stop-color="#4e54c8"/><stop offset=".83888397938" stop-color="#0072ff"/></linearGradient><path d="m14.731 33.169c.365.369.56.854.56 1.364 0 .497-.195.982-.56 1.352-.377.357-.872.561-1.392.561-.508 0-1.002-.204-1.38-.561l-5.47-5.37c-.788-.774-.787-2.029.001-2.801l6.135-6.011c.394-.386.394-1.013 0-1.4l-1.331-1.303c-.394-.387-1.034-.387-1.429 0l-6.183 6.058c-.365.357-.859.561-1.38.561-.52 0-1.015-.204-1.379-.561-.365-.357-.573-.841-.573-1.351s.208-.995.573-1.352l8.229-8.074c.788-.773 2.068-.774 2.856-.001l5.434 5.323c.788.773.788 2.027-.001 2.799l-6.146 6.012c-.395.386-.395 1.013 0 1.398z" fill="url(#a)"/><path d="m22.553 1.161c.365-.357.859-.561 1.38-.561.508 0 1.015.204 1.38.561.364.357.572.854.572 1.352 0 .51-.208.994-.572 1.352l-6.197 6.071c-.394.386-.394 1.013.002 1.398l1.34 1.307c.395.385 1.036.384 1.43-.002l6.136-6.022c.788-.773 2.067-.773 2.855 0l5.422 5.321c.788.774.788 2.028-.001 2.801l-5.014 4.912c-.364.358-.859.562-1.379.562-.521 0-1.015-.204-1.38-.562-.364-.357-.572-.841-.572-1.351s.208-.995.572-1.352l2.969-2.909c.394-.386.394-1.013 0-1.4l-1.33-1.303c-.395-.387-1.035-.387-1.429 0l-6.135 6.01c-.788.773-2.069.773-2.858.002l-5.431-5.314c-.789-.771-.79-2.025-.001-2.798z" fill="url(#b)"/><path d="m19.352 31.358c-.378.357-.872.548-1.38.548-.52 0-1.015-.191-1.392-.548-.365-.37-.56-.855-.56-1.365 0-.497.195-.982.56-1.351l8.24-8.064c.789-.772 2.07-.771 2.858.001l5.421 5.311c.788.773.788 2.028.001 2.801l-6.137 6.022c-.394.386-.395 1.015-.002 1.403l1.324 1.31c.392.388 1.031.39 1.425.003l6.184-6.058c.364-.357.859-.562 1.379-.562.521 0 1.015.205 1.38.562.364.357.572.841.572 1.351s-.208.995-.572 1.352l-8.242 8.075c-.788.773-2.066.77-2.851-.006l-5.406-5.337c-.785-.776-.783-2.033.006-2.806l6.134-6.01c.395-.386.395-1.014 0-1.4l-1.33-1.304c-.394-.386-1.034-.386-1.428.001z" fill="url(#c)"/><path d="m15.646 36.781c-1.02.999-.939 2.688.183 3.787l6.075 5.952c1.122 1.099 2.845 1.179 3.865.18l1.905-1.867c-.186-.107-.365-.23-.525-.387l-9.663-9.468zm16.565-16.23 9.663 9.468c.16.156.286.332.395.514l4.667-4.572c1.019-.999.938-2.688-.184-3.787l-6.075-5.952c-1.122-1.099-2.845-1.179-3.865-.18z" fill="url(#d)"/></svg>